<?xml version="1.0" encoding="UTF-8" standalone="no"?>
<!-- Created with Inkscape (http://www.inkscape.org/) -->

<svg
   width="40.132683mm"
   height="40.132675mm"
   viewBox="0 0 40.132683 40.132675"
   version="1.1"
   id="svg5"
   xml:space="preserve"
   inkscape:version="1.2.2 (b0a8486541, 2022-12-01)"
   sodipodi:docname="manucure_logo.svg"
   inkscape:export-filename="manucure_fav.png"
   inkscape:export-xdpi="96"
   inkscape:export-ydpi="96"
   xmlns:inkscape="http://www.inkscape.org/namespaces/inkscape"
   xmlns:sodipodi="http://sodipodi.sourceforge.net/DTD/sodipodi-0.dtd"
   xmlns="http://www.w3.org/2000/svg"
   xmlns:svg="http://www.w3.org/2000/svg"><sodipodi:namedview
     id="namedview7"
     pagecolor="#ffffff"
     bordercolor="#000000"
     borderopacity="0.25"
     inkscape:showpageshadow="2"
     inkscape:pageopacity="0.0"
     inkscape:pagecheckerboard="0"
     inkscape:deskcolor="#d1d1d1"
     inkscape:document-units="mm"
     showgrid="false"
     inkscape:zoom="5.1754899"
     inkscape:cx="353.10667"
     inkscape:cy="574.92142"
     inkscape:window-width="3440"
     inkscape:window-height="1408"
     inkscape:window-x="0"
     inkscape:window-y="0"
     inkscape:window-maximized="1"
     inkscape:current-layer="layer1" /><defs
     id="defs2" /><g
     inkscape:label="Layer 1"
     inkscape:groupmode="layer"
     id="layer1"
     transform="translate(-70.993791,-165.1692)"><g
       id="g6563"
       transform="translate(7.1399585,-1.7028144)"><rect
         style="opacity:1;fill:#ffffff;stroke-width:0.264583"
         id="rect6631"
         width="59.380234"
         height="51.683922"
         x="52.341923"
         y="162.09167" /><path
         id="path6573"
         style="fill:#000000;stroke-width:0.179377"
         d="m 83.560238,175.88333 -2.941505,1.61896 c -1.617981,0.89039 -3.275849,1.90485 -3.683888,2.25412 -1.024483,0.87692 -1.835984,2.5883 -2.07545,4.37687 l -0.189887,1.41891 -0.635879,0.11771 c -1.193789,0.22118 -1.897534,0.80692 -2.327348,1.93742 l -0.166765,0.43898 1.117954,-0.09 c 0.904169,-0.0725 1.259741,-0.0171 1.860338,0.28939 1.572381,0.80217 2.401706,2.81781 1.831959,4.45219 -0.239904,0.68819 -1.088714,1.16123 -3.096007,1.72546 -0.868357,0.24409 -1.747387,0.59375 -1.95353,0.77707 -0.488091,0.43405 -1.032708,1.63079 -1.037725,2.2804 l -0.0039,0.51256 0.510804,-0.54689 c 0.665328,-0.71225 1.190832,-0.82685 2.961125,-0.64569 2.279488,0.23325 2.875248,0.17704 3.786539,-0.357 0.959348,-0.56222 1.618275,-1.48045 1.876454,-2.61429 0.101091,-0.44395 0.185694,-2.23997 0.188135,-3.99114 l 0.0045,-3.18394 h 1.614395 1.614395 v 2.63425 c 0,2.4649 -0.02524,2.66133 -0.393439,3.05326 -0.339603,0.3615 -0.358028,0.45068 -0.134533,0.65059 0.142429,0.1274 0.83413,0.77522 1.537319,1.43957 l 1.278412,1.20765 2.164438,-1.93005 c 1.63263,-1.4561 2.11819,-1.98612 1.976302,-2.15709 -0.135008,-0.16269 -0.284,-0.17541 -0.527972,-0.0448 -0.326382,0.17467 -0.339789,0.0798 -0.33423,-2.38061 l 0.006,-2.56242 0.714706,-0.98658 0.715056,-0.98657 -0.724866,-0.0553 -0.724866,-0.0554 0.04905,-3.17098 c 0.05748,-3.72425 0.05312,-3.71769 1.745424,-2.52425 l 1.083971,0.76445 v 6.569 c 0,7.51765 0.06695,8.01374 1.210793,8.95659 0.365543,0.30131 0.749256,0.54759 0.852739,0.54759 0.347178,0 2.650181,-2.46425 2.511982,-2.68785 -0.09492,-0.15361 -0.186446,-0.15864 -0.326867,-0.0182 -0.308342,0.30834 -0.810393,0.22778 -1.019856,-0.16361 -0.129207,-0.24143 -0.175232,-2.54696 -0.140846,-7.05422 l 0.05115,-6.69511 0.493288,-0.74519 c 0.2713,-0.40982 0.493288,-0.78727 0.493288,-0.83873 0,-0.20498 -0.40063,-0.0733 -0.899689,0.2957 l -0.526576,0.38923 -1.516644,-1.04088 c -0.834232,-0.57251 -1.623317,-0.9974 -1.753481,-0.94418 -0.130164,0.0532 -1.245482,0.74593 -2.478699,1.53942 l -2.242214,1.44273 -0.31321,-0.72382 c -0.372082,-0.86014 -0.776946,-1.39794 -1.527157,-2.02921 z m -2.233456,2.20473 c 0.08727,-0.002 0.183507,0.009 0.298145,0.0322 1.131382,0.22628 1.190125,0.40077 1.190125,3.53954 v 2.84201 l -1.031419,3.5e-4 c -1.02711,3.2e-4 -1.033542,0.003 -1.541172,0.8072 -0.280366,0.44378 -0.542704,0.80685 -0.582976,0.80685 -0.162817,0 -0.05812,-5.51917 0.116666,-6.14857 0.103489,-0.37267 0.440897,-0.9649 0.749389,-1.31626 0.358118,-0.40788 0.539421,-0.55435 0.801242,-0.56335 z m 6.51083,0.67688 v 2.86863 2.86829 h -0.992179 -0.99183 l 0.0501,-2.26429 0.05044,-2.26464 0.941731,-0.604 z m -8.186185,0.2137 c 0.01761,-0.003 0.0314,-4.7e-4 0.04134,0.01 0.03105,0.0311 -0.05734,0.37641 -0.196544,0.76726 -0.198794,0.55813 -0.254838,2.05035 -0.261008,6.95297 -0.0084,6.63887 -0.05457,7.02496 -0.894783,7.47464 -0.343544,0.18387 -1.260624,0.21527 -1.837566,0.063 -0.245715,-0.0648 -0.17483,-0.20775 0.375221,-0.7578 0.996441,-0.99644 1.093679,-1.62143 1.094831,-7.04756 5.89e-4,-2.77317 0.07944,-5.00167 0.19129,-5.40444 0.154262,-0.55553 1.223141,-2.0091 1.487218,-2.05757 z m 6.213037,7.67574 h 0.986574 0.986574 v 2.85777 2.85813 l -0.520964,0.37066 c -0.64058,0.45611 -0.590248,0.45827 -1.06225,-0.0442 -0.366225,-0.38983 -0.389934,-0.58685 -0.389934,-3.22879 z" /><path
         id="path6570"
         style="opacity:0.8;fill:#000000;stroke-width:0.244673"
         d="m 66.302647,169.32082 c -3.265086,3.26509 -3.265086,31.97158 0,35.23574 3.265085,3.26417 31.971587,3.26417 35.235743,0 3.26417,-3.26416 3.26417,-31.97065 0,-35.23574 -3.264156,-3.26508 -31.970658,-3.26508 -35.235743,0 z m 1.878804,1.8788 c 2.916983,-2.91698 28.562549,-2.91698 31.478605,0 2.916064,2.91699 2.916064,28.56257 0,31.47862 -2.916056,2.91606 -28.561622,2.91606 -31.478605,0 -2.916984,-2.91605 -2.916984,-28.56163 0,-31.47862 z"
         inkscape:export-filename="./path6570.svg"
         inkscape:export-xdpi="96.200897"
         inkscape:export-ydpi="96.200897" /></g></g></svg>
