<?xml version="1.0" encoding="UTF-8" standalone="no"?>
<!-- Created with Inkscape (http://www.inkscape.org/) -->

<svg
   width="40.132675mm"
   height="40.132675mm"
   viewBox="0 0 40.132675 40.132675"
   version="1.1"
   id="svg5"
   xml:space="preserve"
   inkscape:version="1.2.2 (b0a8486541, 2022-12-01)"
   sodipodi:docname="manucure_logo.svg"
   inkscape:export-filename="manucure_fav.png"
   inkscape:export-xdpi="96"
   inkscape:export-ydpi="96"
   xmlns:inkscape="http://www.inkscape.org/namespaces/inkscape"
   xmlns:sodipodi="http://sodipodi.sourceforge.net/DTD/sodipodi-0.dtd"
   xmlns="http://www.w3.org/2000/svg"
   xmlns:svg="http://www.w3.org/2000/svg"><sodipodi:namedview
     id="namedview7"
     pagecolor="#ffffff"
     bordercolor="#000000"
     borderopacity="0.25"
     inkscape:showpageshadow="2"
     inkscape:pageopacity="0.0"
     inkscape:pagecheckerboard="0"
     inkscape:deskcolor="#d1d1d1"
     inkscape:document-units="mm"
     showgrid="false"
     inkscape:zoom="1.829812"
     inkscape:cx="636.40417"
     inkscape:cy="640.77621"
     inkscape:window-width="1704"
     inkscape:window-height="1388"
     inkscape:window-x="0"
     inkscape:window-y="0"
     inkscape:window-maximized="1"
     inkscape:current-layer="layer1" /><defs
     id="defs2" /><g
     inkscape:label="Layer 1"
     inkscape:groupmode="layer"
     id="layer1"
     transform="translate(-82.936457,-159.56829)"><g
       id="g1451"><path
         id="rect432"
         style="opacity:1;fill:#ffffff;stroke-width:0.177778"
         d="m 86.593988,166.3295 c 0,8.93874 0,17.87746 0,26.8162 10.64574,0 21.291472,0 31.937212,0 0,-9.0675 0,-18.13501 0,-27.20253 -10.64574,0 -21.291472,0 -31.937212,0 0,0.12878 0,0.25756 0,0.38633 z" /><g
         id="g428"
         transform="matrix(0.81968771,0,0,0.81968771,31.397069,34.507625)"
         inkscape:export-filename="manucure_fav.png"
         inkscape:export-xdpi="96.200897"
         inkscape:export-ydpi="96.200897"><path
           id="path179"
           style="fill:#000000;stroke-width:0.264583"
           d="m 87.415432,160.74535 -4.338753,2.38797 c -2.386541,1.31334 -4.831915,2.80969 -5.433777,3.32486 -1.511124,1.29347 -2.708097,3.81777 -3.061312,6.45594 l -0.280086,2.0929 -0.937928,0.17363 c -1.760852,0.32624 -2.798885,1.19021 -3.432865,2.85771 l -0.24598,0.6475 1.648995,-0.13281 c 1.333659,-0.10706 1.858131,-0.0251 2.744019,0.42685 2.31928,1.18321 3.542543,4.15631 2.70216,6.56704 -0.353861,1.01509 -1.605865,1.71282 -4.566646,2.54507 -1.280835,0.36004 -2.577414,0.87578 -2.881478,1.14618 -0.719939,0.64023 -1.523256,2.40544 -1.530656,3.36362 l -0.0057,0.75602 0.753442,-0.80666 c 0.981366,-1.05058 1.756491,-1.21961 4.367692,-0.9524 3.362272,0.34406 4.241024,0.26114 5.585189,-0.52658 1.41505,-0.82928 2.386974,-2.18368 2.76779,-3.8561 0.149111,-0.65484 0.273902,-3.30398 0.277502,-5.88698 l 0.0067,-4.69635 h 2.38125 2.38125 v 3.88555 c 0,3.63575 -0.03722,3.9255 -0.580326,4.5036 -0.500919,0.53321 -0.528096,0.66475 -0.198438,0.95963 0.210085,0.18791 1.230351,1.14346 2.267562,2.12338 l 1.885673,1.78129 3.19257,-2.84685 c 2.408148,-2.14776 3.124355,-2.92955 2.915068,-3.18172 -0.199139,-0.23997 -0.418902,-0.25874 -0.778764,-0.0661 -0.481417,0.25765 -0.501193,0.11771 -0.492993,-3.51141 l 0.0088,-3.77961 1.054199,-1.45521 1.054716,-1.45521 -1.069186,-0.0816 -1.069185,-0.0817 0.07235,-4.67723 c 0.08478,-5.49331 0.07835,-5.48363 2.57452,-3.72329 l 1.598869,1.12758 v 9.68933 c 0,11.08863 0.09876,11.82036 1.785935,13.21108 0.53918,0.44444 1.10516,0.8077 1.2578,0.8077 0.51209,0 3.90904,-3.63479 3.7052,-3.96461 -0.14001,-0.22657 -0.27501,-0.23399 -0.48214,-0.0269 -0.4548,0.4548 -1.19534,0.33597 -1.5043,-0.24133 -0.19058,-0.3561 -0.25846,-3.7568 -0.20774,-10.40505 l 0.0755,-9.87537 0.7276,-1.09916 c 0.40018,-0.60448 0.72761,-1.16123 0.72761,-1.23713 0,-0.30235 -0.59093,-0.10809 -1.32705,0.43615 l -0.7767,0.57412 -2.23707,-1.5353 c -1.230501,-0.84446 -2.39441,-1.47118 -2.586404,-1.39268 -0.191993,0.0785 -1.837099,1.10025 -3.656108,2.27066 l -3.307292,2.12804 -0.461987,-1.06764 c -0.548827,-1.26871 -1.146004,-2.06198 -2.252576,-2.9931 z m -3.294373,3.252 c 0.12873,-0.004 0.270675,0.0137 0.439767,0.0475 1.668801,0.33377 1.755448,0.59114 1.755448,5.22087 v 4.192 l -1.521354,5.1e-4 c -1.514999,4.7e-4 -1.524488,0.005 -2.273246,1.19063 -0.413544,0.65458 -0.800496,1.19011 -0.859896,1.19011 -0.240157,0 -0.08573,-8.14084 0.172082,-9.06922 0.152648,-0.54968 0.650328,-1.42323 1.105359,-1.94148 0.528227,-0.60163 0.795651,-0.81767 1.18184,-0.83096 z m 9.603548,0.99839 v 4.23127 4.23075 h -1.463476 -1.46296 l 0.0739,-3.33985 0.07441,-3.34037 1.389063,-0.8909 z m -12.074715,0.31523 c 0.02597,-0.005 0.04632,-7.1e-4 0.06098,0.014 0.0458,0.0458 -0.08457,0.5552 -0.289904,1.13171 -0.293224,0.82325 -0.37589,3.02428 -0.38499,10.25571 -0.01235,9.7924 -0.08049,10.3619 -1.319816,11.02517 -0.50673,0.27122 -1.859433,0.31753 -2.710429,0.093 -0.362434,-0.0956 -0.257877,-0.30643 0.553455,-1.11776 1.469762,-1.46976 1.613188,-2.39164 1.614888,-10.39523 8.67e-4,-4.09046 0.117186,-7.37752 0.282154,-7.97161 0.227538,-0.81941 1.804147,-2.96344 2.193664,-3.03495 z m 9.164299,11.32179 h 1.455208 1.455208 v 4.21524 4.21577 l -0.768428,0.54673 c -0.944863,0.67278 -0.870622,0.67596 -1.56683,-0.0651 -0.540186,-0.575 -0.575158,-0.86561 -0.575158,-4.7625 z" /><path
           id="rect369"
           style="opacity:0.8;fill:#000000;stroke-width:0.298495"
           d="m 65.864354,155.55862 c -3.983328,3.98333 -3.983328,39.00458 10e-7,42.98678 3.983328,3.98221 39.004595,3.98221 42.986795,0 3.9822,-3.9822 3.9822,-39.00345 0,-42.98678 -3.9822,-3.98333 -39.003467,-3.98333 -42.986796,0 z m 2.292098,2.29209 c 3.558652,-3.55865 34.845648,-3.55865 38.403168,0 3.55753,3.55866 3.55753,34.84567 0,38.40319 -3.55752,3.55752 -34.844516,3.55752 -38.403168,0 -3.558653,-3.55752 -3.558653,-34.84453 0,-38.40319 z" /></g><path
         style="opacity:0.5;fill:#ffffff;stroke-width:0.136626"
         d="m 380.16201,746.51476 c -22.87573,-0.53727 -40.67655,-2.96204 -47.79433,-6.51038 -2.08475,-1.03929 -3.14256,-2.09409 -4.14825,-4.13643 -2.33923,-4.75052 -4.14621,-13.69946 -5.29684,-26.23221 -1.49591,-16.29349 -1.70473,-37.043 -0.54792,-54.44548 1.19283,-17.94441 3.58653,-30.23502 6.77335,-34.77814 0.77748,-1.10838 1.66045,-1.78623 3.46812,-2.66245 6.58951,-3.1941 20.37432,-5.24074 42.01251,-6.23764 5.06005,-0.23312 24.20978,-0.23317 29.3746,-7e-5 18.42711,0.83166 30.97822,2.43561 38.74493,4.95135 3.38871,1.09765 5.50685,2.31684 6.62662,3.81425 1.77746,2.37689 3.46984,7.82049 4.69508,15.10192 3.50199,20.81183 3.89459,56.94542 0.88028,81.01925 -1.48252,11.84014 -3.60732,19.2829 -6.2623,21.93561 -1.33297,1.33183 -3.6862,2.45344 -7.42189,3.53746 -11.56874,3.35699 -36.19278,5.22804 -61.10396,4.64296 z m 67.83483,-67.89313 v -51.50802 h -60.38871 -60.38872 v 51.50802 51.50802 h 60.38872 60.38871 z"
         id="path1441"
         transform="scale(0.26458333)" /><path
         style="opacity:0.5;fill:#ffffff;stroke-width:0.136626"
         d="m 327.35603,678.62163 v -51.3714 h 60.2521 60.25209 v 51.3714 51.3714 h -60.25209 -60.2521 z m 3.12648,49.05462 c 3.84941,-4.08677 5.40596,-4.4415 15.31804,-3.491 8.31175,0.79705 11.29436,0.6 14.60501,-0.9649 3.56579,-1.6855 6.53716,-4.52964 8.31907,-7.96288 1.23121,-2.37218 1.83268,-4.43975 2.07262,-7.12461 0.36442,-4.07795 0.4391,-6.75773 0.50924,-18.27374 l 0.0743,-12.19387 h 7.30388 7.30388 l -0.0621,11.03255 c -0.0428,7.60179 -0.11162,11.28747 -0.2214,11.85231 -0.23471,1.20765 -0.67831,2.05836 -1.69537,3.25128 -0.93571,1.0975 -1.13413,1.50582 -0.99709,2.05183 0.0449,0.17901 1.78387,1.91334 4.00694,3.99632 2.16015,2.02402 5.18046,4.86863 6.71179,6.32135 l 2.78425,2.64131 0.29403,-0.26297 c 0.16172,-0.14463 2.5996,-2.31418 5.41751,-4.82121 10.705,-9.52397 13.38936,-12.2 13.38936,-13.34781 0,-0.17673 -0.16268,-0.47211 -0.36152,-0.65638 -0.45269,-0.41954 -1.23473,-0.44166 -2.07851,-0.0588 -0.8351,0.37894 -1.05664,0.34814 -1.25016,-0.17378 -0.28558,-0.77023 -0.40951,-6.42205 -0.31867,-14.53339 l 0.0874,-7.80455 3.19036,-4.39694 c 1.7547,-2.41831 3.19037,-4.44615 3.19037,-4.5063 0,-0.11038 -0.30602,-0.14123 -4.3496,-0.43856 l -2.23189,-0.16411 0.0875,-5.06726 c 0.35024,-20.27834 0.4079,-21.42091 1.16765,-23.13845 0.18971,-0.42887 0.39028,-0.64197 0.74288,-0.7893 0.43899,-0.18342 0.55042,-0.17812 1.22268,0.0582 0.91714,0.32235 1.82795,0.90563 6.24737,4.00078 l 3.50143,2.45223 0.0746,25.37063 c 0.0437,14.8668 0.13599,26.72819 0.22291,28.64965 0.36842,8.14391 1.00811,11.69209 2.53953,14.08609 1.22576,1.91616 5.61196,5.38312 6.81042,5.38312 0.55413,0 1.93264,-1.14845 4.7468,-3.95463 4.01884,-4.00744 6.67955,-7.27914 6.67955,-8.21338 0,-0.80917 -0.92432,-0.98442 -1.54678,-0.29327 -0.13686,0.15196 -0.56436,0.41203 -0.94999,0.57793 -1.6548,0.71187 -3.44592,-0.24861 -3.78355,-2.02891 -0.49753,-2.62345 -0.61561,-13.88873 -0.41842,-39.9184 l 0.16716,-22.06511 1.74803,-2.66421 c 2.74858,-4.18917 3.1072,-4.95633 2.39986,-5.13386 -0.73848,-0.18535 -2.09901,0.4991 -4.5475,2.28773 l -1.67108,1.22073 -4.13552,-2.83982 c -5.93157,-4.07315 -9.5687,-6.19161 -10.63023,-6.19161 -0.46759,0 -4.52579,2.5069 -15.73242,9.71848 -3.13245,2.01576 -5.76562,3.68171 -5.85148,3.70211 -0.0859,0.0204 -0.66045,-1.10034 -1.27684,-2.49051 -2.17934,-4.91512 -3.68291,-6.89155 -8.04078,-10.56957 l -1.73683,-1.46587 -0.44919,0.23015 c -0.97443,0.49926 -15.45677,8.4918 -17.25419,9.52228 -6.92585,3.97063 -11.92358,7.20726 -13.46216,8.71834 -3.8584,3.78943 -6.90384,9.95317 -8.25933,16.71622 -0.18145,0.90535 -0.55332,3.30609 -0.82637,5.33499 -0.27306,2.02889 -0.5067,3.69393 -0.5192,3.70009 -0.0125,0.006 -0.82201,0.15306 -1.79889,0.32646 -4.26107,0.75638 -6.53802,1.80988 -8.6266,3.99134 -0.95376,0.99618 -1.94151,2.45976 -2.51774,3.7306 -0.44174,0.97424 -1.36503,3.38614 -1.31528,3.43589 0.0178,0.0178 1.47593,-0.0855 3.24024,-0.22966 5.46477,-0.44643 6.93763,-0.33869 9.30138,0.68037 5.33003,2.29791 9.0342,7.23687 10.0471,13.39632 0.42803,2.60286 -2.7e-4,6.13315 -0.97958,8.07472 -0.5235,1.03785 -1.95256,2.37589 -3.41613,3.19855 -2.44248,1.3729 -4.86098,2.29256 -10.10459,3.84236 -5.5212,1.63185 -8.53623,2.91887 -9.6651,4.12572 -1.88056,2.01047 -3.8323,6.28447 -4.19661,9.1899 -0.17199,1.37165 -0.18806,3.13099 -0.0286,3.13099 0.0631,0 0.86504,-0.79662 1.78215,-1.77027 z"
         id="path1443"
         transform="scale(0.26458333)" /></g><path
       style="opacity:0.5;fill:#ffffff;stroke-width:0.193218"
       d="m 376.42319,746.38538 c -24.14425,-0.804 -41.70154,-3.78854 -46.22804,-7.85826 -4.00751,-3.60309 -6.72987,-17.27157 -8.11,-40.71878 -0.32897,-5.58898 -0.45588,-25.70202 -0.2036,-32.26748 0.97176,-25.2899 3.86031,-41.77688 8.05416,-45.97073 3.88482,-3.88482 17.53414,-6.51143 40.94705,-7.87967 5.75735,-0.33646 30.93438,-0.3388 36.71151,-0.003 23.05438,1.3384 37.01975,3.97961 40.92422,7.73984 1.05137,1.01253 1.74389,2.17289 2.61332,4.3788 2.66615,6.76451 4.42628,19.02274 5.47942,38.16064 0.31682,5.75744 0.31506,28.03232 -0.003,33.90983 -1.13219,20.94269 -3.16893,33.82227 -6.3515,40.16456 -1.22052,2.43228 -2.99243,3.74792 -6.91736,5.13613 -11.09328,3.92357 -39.3817,6.12544 -66.91649,5.20854 z M 333.3041,725.17789 c 2.21226,-1.47729 4.79122,-1.68309 12.26705,-0.9789 4.91198,0.46268 9.68298,0.54306 11.4965,0.19367 3.50103,-0.6745 7.5642,-3.2915 9.97526,-6.42486 1.17807,-1.53099 2.44689,-3.98709 3.03648,-5.8778 0.95063,-3.04856 1.28381,-9.26728 1.28535,-23.99089 l 0.001,-10.28888 h 7.3423 7.3423 l -0.007,7.97026 c -0.007,8.39288 -0.22691,14.45628 -0.56679,15.62453 -0.11175,0.38412 -0.46328,1.03623 -0.78117,1.44914 -0.3179,0.4129 -0.83875,1.08983 -1.15746,1.50429 -0.75019,0.97558 -0.73821,1.54627 0.0485,2.30966 1.87919,1.8235 12.77014,12.01605 12.88819,12.06172 0.0766,0.0297 3.08802,-2.57777 6.69197,-5.79425 12.10369,-10.80241 13.62735,-12.54126 11.76668,-13.42855 -0.64851,-0.30925 -0.72218,-0.30565 -1.63505,0.08 -0.8294,0.35041 -0.98682,0.36667 -1.18921,0.1228 -0.40129,-0.48352 -0.53513,-3.71931 -0.54483,-13.17214 l -0.009,-9.14522 3.29777,-4.54413 c 1.81377,-2.49928 3.2528,-4.58911 3.19784,-4.64407 -0.055,-0.0549 -1.25637,-0.17935 -2.66981,-0.27644 -1.41343,-0.0971 -2.85912,-0.22258 -3.21265,-0.27889 l -0.64276,-0.10238 0.1227,-8.15195 c 0.16308,-10.83367 0.4242,-17.36861 0.74813,-18.72321 0.74029,-3.09569 1.4408,-2.93236 8.40804,1.96038 l 3.69638,2.59577 0.003,22.81245 c 0.006,38.97181 0.31287,42.72028 3.80704,46.4944 1.20348,1.2999 3.78186,3.31014 5.0126,3.90807 l 0.81545,0.39618 0.83235,-0.55046 c 1.84002,-1.21687 7.84482,-7.45377 9.64675,-10.01964 1.02779,-1.46351 1.16984,-2.11354 0.53599,-2.45276 -0.34405,-0.18413 -0.54276,-0.12051 -1.28222,0.41053 -1.68037,1.20675 -3.52831,0.86736 -4.34622,-0.79822 -0.67174,-1.36793 -0.78311,-7.52759 -0.65034,-35.96956 l 0.12422,-26.61081 1.80199,-2.75839 c 2.14375,-3.28154 2.83591,-4.54053 2.6963,-4.90436 -0.28295,-0.73736 -2.33287,0.0876 -4.79584,1.93006 -0.74389,0.55648 -1.45428,1.07266 -1.57864,1.14707 -0.1302,0.0779 -2.0152,-1.09068 -4.44402,-2.75502 -4.79896,-3.28848 -7.74768,-5.09937 -9.37135,-5.7552 -1.07588,-0.43456 -1.14526,-0.43963 -1.75117,-0.12797 -1.03716,0.53348 -5.21568,3.15058 -13.14708,8.23431 -4.12087,2.64132 -7.60593,4.84592 -7.74457,4.89913 -0.16557,0.0635 -0.44016,-0.35364 -0.80019,-1.21571 -1.49032,-3.56854 -2.97263,-6.11746 -4.77683,-8.21406 -0.82685,-0.96085 -5.1204,-4.79097 -5.53514,-4.93768 -0.0824,-0.0291 -3.49097,1.78424 -7.57465,4.02972 -15.1717,8.34244 -21.33922,12.09982 -23.76087,14.47562 -2.02696,1.98859 -4.1308,5.17569 -5.55853,8.4206 -1.67744,3.81246 -2.59056,7.37127 -3.31755,12.93004 -0.6292,4.81099 -0.37418,4.25832 -2.09695,4.54432 -2.25464,0.3743 -4.60289,1.10034 -6.11057,1.88928 -1.60446,0.8396 -3.56683,2.7282 -4.53261,4.36224 -0.75147,1.27145 -2.20189,4.76137 -2.04432,4.91895 0.0573,0.0573 1.42852,7.7e-4 3.04714,-0.12571 5.67562,-0.44339 7.3464,-0.29168 9.88837,0.89785 2.5015,1.17059 5.06855,3.36503 6.64805,5.68307 2.98433,4.37972 3.85424,9.89263 2.30984,14.63811 -0.89389,2.74666 -4.04431,4.79211 -10.57779,6.86779 -7.70731,2.4486 -8.88049,2.854 -10.54243,3.64302 -1.97615,0.9382 -2.85873,1.77387 -4.11236,3.89379 -1.69004,2.85791 -2.55367,5.68995 -2.55367,8.37405 v 1.82988 l 1.74306,-1.85722 c 0.95868,-1.02147 2.26211,-2.20382 2.8965,-2.62745 z"
       id="path1453"
       transform="scale(0.26458333)" /><path
       style="opacity:0.5;fill:#ffffff;stroke-width:0.193218"
       d="m 376.42319,746.38538 c -24.14425,-0.804 -41.70154,-3.78854 -46.22804,-7.85826 -4.00751,-3.60309 -6.72987,-17.27157 -8.11,-40.71878 -0.33016,-5.60918 -0.45453,-25.6974 -0.20037,-32.36409 0.95798,-25.12807 3.86413,-41.68732 8.05093,-45.87412 3.85819,-3.85819 17.31316,-6.46943 40.46401,-7.85296 5.48752,-0.32794 25.81089,-0.45206 32.46069,-0.19824 18.74532,0.71549 33.07517,2.56512 40.69511,5.25273 4.52395,1.59563 5.95732,2.92641 7.57629,7.03402 3.81562,9.68093 6.11557,33.5119 5.76214,59.70449 -0.34927,25.88379 -2.73299,44.75073 -6.63691,52.53054 -1.22053,2.43228 -2.99244,3.74792 -6.91737,5.13613 -11.09328,3.92357 -39.3817,6.12544 -66.91648,5.20854 z M 333.3041,725.17789 c 2.09664,-1.40009 4.91666,-1.68073 11.0284,-1.09755 10.53628,1.00538 13.39888,0.7621 17.30059,-1.47029 3.71301,-2.12442 6.4711,-5.33793 8.01723,-9.34105 1.33564,-3.45813 1.52792,-6.06294 1.65832,-22.46483 l 0.10331,-12.99394 h 7.34594 7.34595 l -0.10885,10.67532 c -0.10774,10.56786 -0.22465,12.5304 -0.81432,13.67071 -0.15034,0.29073 -0.6718,0.99539 -1.1588,1.56592 -0.95472,1.11849 -1.20831,1.73409 -0.94207,2.28695 0.15374,0.31926 13.08605,12.59425 13.40253,12.72132 0.20481,0.0822 13.0767,-11.4697 15.87392,-14.24612 3.43447,-3.40892 3.91608,-4.33896 2.57747,-4.9773 -0.64852,-0.30925 -0.72219,-0.30565 -1.63506,0.08 -0.8294,0.35041 -0.98682,0.36667 -1.1892,0.1228 -0.4013,-0.48352 -0.53514,-3.71931 -0.54483,-13.17214 l -0.009,-9.14522 3.29777,-4.54413 c 1.81377,-2.49928 3.2581,-4.58381 3.20961,-4.6323 -0.0485,-0.0485 -1.2499,-0.1738 -2.66981,-0.27849 -1.4199,-0.10468 -2.87089,-0.23548 -3.22442,-0.29066 l -0.64276,-0.10033 0.1227,-8.15195 c 0.16308,-10.83367 0.4242,-17.36861 0.74813,-18.72321 0.74006,-3.09473 1.43885,-2.93215 8.40898,1.95645 l 3.69544,2.59186 0.003,22.81637 c 0.006,38.97619 0.3128,42.72412 3.80704,46.49832 1.20348,1.2999 3.78186,3.31014 5.0126,3.90807 l 0.81545,0.39618 0.83235,-0.54852 c 1.85774,-1.22425 7.94844,-7.58432 9.79191,-10.22497 0.88972,-1.27445 1.00225,-1.92215 0.39083,-2.24937 -0.34405,-0.18413 -0.54276,-0.12051 -1.28222,0.41053 -1.68037,1.20675 -3.52831,0.86736 -4.34622,-0.79822 -0.67171,-1.36785 -0.78311,-7.52785 -0.65038,-35.96205 l 0.12418,-26.6033 1.90573,-2.95912 c 2.27577,-3.5337 2.73011,-4.36041 2.59289,-4.71798 -0.28322,-0.73806 -2.20308,0.0311 -4.73507,1.89707 -0.77745,0.57294 -1.51467,1.10275 -1.63827,1.17734 -0.12915,0.0779 -2.2188,-1.22293 -4.91392,-3.0591 -4.95206,-3.3738 -7.34322,-4.82811 -9.02315,-5.48791 -0.96831,-0.38031 -1.05601,-0.38475 -1.64235,-0.0832 -1.02559,0.52748 -5.23085,3.16173 -13.13559,8.22837 -4.12087,2.64132 -7.60593,4.84592 -7.74457,4.89913 -0.16557,0.0635 -0.44016,-0.35364 -0.80019,-1.21571 -1.52238,-3.6453 -2.991,-6.15027 -4.85832,-8.28666 -0.89179,-1.0203 -5.03539,-4.71425 -5.45814,-4.86585 -0.16009,-0.0574 -12.75325,6.83172 -18.37636,10.05284 -4.13266,2.36734 -9.33565,5.59167 -11.01994,6.82914 -2.67326,1.96407 -4.92815,4.87537 -6.93598,8.95506 -2.03096,4.12668 -3.07504,7.90433 -3.87483,14.01971 -0.6292,4.81099 -0.37418,4.25832 -2.09695,4.54432 -2.25464,0.3743 -4.60289,1.10034 -6.11057,1.88928 -1.60446,0.8396 -3.56683,2.7282 -4.53261,4.36224 -0.75147,1.27145 -2.20189,4.76137 -2.04432,4.91895 0.0573,0.0573 1.42852,7.7e-4 3.04714,-0.12571 5.67562,-0.44339 7.3464,-0.29168 9.88837,0.89785 2.5015,1.17059 5.06855,3.36503 6.64805,5.68307 2.98433,4.37972 3.85424,9.89263 2.30984,14.63811 -0.89308,2.74415 -4.03707,4.78649 -10.57779,6.87136 -1.86634,0.5949 -4.60925,1.47128 -6.09535,1.94751 -3.24274,1.03916 -5.75671,2.18357 -6.64599,3.0254 -0.85623,0.81056 -2.20396,2.88408 -2.94081,4.52453 -1.04755,2.33218 -1.52631,4.33683 -1.52631,6.39087 v 1.84886 l 1.74306,-1.85722 c 0.95868,-1.02147 2.26211,-2.20382 2.8965,-2.62745 z"
       id="path1455"
       transform="scale(0.26458333)" /><path
       style="opacity:0.5;fill:#ffffff;stroke-width:0.193218"
       d="m 376.42319,746.38538 c -17.67605,-0.58861 -32.76126,-2.4594 -40.60957,-5.03619 -4.052,-1.33037 -5.99335,-2.64495 -7.26554,-4.91984 -3.08391,-5.51454 -5.29034,-18.69966 -6.46293,-38.62101 -0.33016,-5.60918 -0.45453,-25.6974 -0.20037,-32.36409 0.95798,-25.12807 3.86413,-41.68732 8.05093,-45.87412 3.86392,-3.86392 17.25723,-6.46307 40.46401,-7.85258 5.47977,-0.3281 25.80653,-0.45258 32.46069,-0.19879 18.90745,0.72113 33.0063,2.54101 40.69511,5.2529 4.4292,1.56221 5.89399,2.88691 7.49686,6.7799 4.97267,12.07736 7.2819,49.15789 5.02753,80.7296 -1.31984,18.48399 -3.95073,30.54884 -7.41753,34.01564 -3.36419,3.36419 -14.66014,5.90405 -32.5665,7.3225 -11.13203,0.88181 -26.99714,1.18817 -39.67269,0.76608 z M 333.3041,725.17789 c 2.21294,-1.47775 4.79594,-1.6836 12.26705,-0.97764 7.86711,0.74337 11.55865,0.54124 14.52544,-0.79534 5.87983,-2.64895 9.99328,-8.34185 10.67677,-14.77634 0.3941,-3.71015 0.58879,-10.50941 0.59062,-20.62607 l 0.002,-10.19227 h 7.3423 7.3423 l -0.007,7.97026 c -0.007,8.39288 -0.22691,14.45628 -0.56679,15.62453 -0.11175,0.38412 -0.46328,1.03623 -0.78117,1.44914 -0.3179,0.4129 -0.83875,1.08983 -1.15746,1.50429 -0.72007,0.93642 -0.73308,1.54226 -0.0474,2.20788 1.75361,1.70235 12.87158,12.11864 12.98112,12.16186 0.2131,0.0841 12.99866,-11.38902 15.87926,-14.24923 1.44742,-1.43717 2.78046,-2.90498 2.9623,-3.2618 0.4317,-0.84707 0.26216,-1.46167 -0.48904,-1.77283 -0.52341,-0.2168 -0.71994,-0.19779 -1.5409,0.14905 -0.81667,0.34504 -0.97179,0.36042 -1.17424,0.11648 -0.40129,-0.48352 -0.53513,-3.71931 -0.54483,-13.17214 l -0.009,-9.14522 3.29777,-4.54413 c 1.81377,-2.49928 3.2581,-4.58381 3.20961,-4.6323 -0.0485,-0.0485 -1.2499,-0.1738 -2.66981,-0.27849 -1.4199,-0.10468 -2.87089,-0.23548 -3.22442,-0.29066 l -0.64276,-0.10033 0.1227,-8.15195 c 0.16308,-10.83367 0.4242,-17.36861 0.74813,-18.72321 0.74006,-3.09473 1.43885,-2.93215 8.40898,1.95645 l 3.69544,2.59186 0.004,22.71976 c 0.007,39.14017 0.30875,42.80844 3.83678,46.62568 1.17572,1.27211 3.76081,3.28387 4.98233,3.87732 l 0.81545,0.39618 0.81167,-0.53714 c 1.88506,-1.24747 7.96546,-7.59046 9.8126,-10.23635 0.88971,-1.27445 1.00225,-1.92215 0.39083,-2.24937 -0.34406,-0.18413 -0.54276,-0.12051 -1.28222,0.41053 -1.68037,1.20675 -3.52832,0.86736 -4.34622,-0.79822 -0.67174,-1.36791 -0.78312,-7.52766 -0.65036,-35.96765 l 0.12421,-26.60889 1.90325,-2.95353 c 2.11266,-3.27851 2.71452,-4.38155 2.58677,-4.7408 -0.24876,-0.6995 -2.29104,0.13057 -4.71317,1.91562 -0.7848,0.57837 -1.53126,1.11462 -1.65882,1.19166 -0.13803,0.0834 -1.5041,-0.73605 -3.37456,-2.0242 -5.85262,-4.03056 -8.7309,-5.80671 -10.61047,-6.54757 -0.91335,-0.36 -1.00261,-0.3635 -1.5872,-0.0621 -0.93257,0.48081 -5.41408,3.29081 -13.43012,8.42097 -3.96405,2.53695 -7.31868,4.65534 -7.45474,4.70755 -0.15954,0.0612 -0.44197,-0.37103 -0.79548,-1.21751 -1.5028,-3.5984 -2.97687,-6.1234 -4.80724,-8.23455 -0.83785,-0.96637 -5.09254,-4.76432 -5.50781,-4.91653 -0.17944,-0.0658 -13.56771,7.29073 -19.26393,10.58503 -5.15018,2.97851 -9.39858,5.67061 -10.98463,6.96068 -3.13624,2.55097 -6.17424,7.46591 -7.95135,12.86388 -0.97913,2.9741 -1.45475,5.21072 -2.00862,9.44573 -0.22237,1.70032 -0.45135,3.35944 -0.50885,3.68692 -0.10288,0.58606 -0.13392,0.6009 -1.97301,0.94329 -5.03385,0.93717 -7.87155,2.57006 -9.96558,5.73449 -0.75476,1.14057 -2.51491,5.17218 -2.33615,5.35094 0.0568,0.0568 1.42767,-1.1e-4 3.04629,-0.12656 5.67562,-0.44339 7.3464,-0.29168 9.88836,0.89785 2.5015,1.17059 5.06855,3.36503 6.64806,5.68307 2.98432,4.37972 3.85424,9.89263 2.30983,14.63811 -0.89307,2.74415 -4.03706,4.78649 -10.57778,6.87136 -1.86634,0.5949 -4.61062,1.47123 -6.0984,1.94741 -5.33423,1.70726 -6.87093,2.71185 -8.54674,5.58729 -1.7334,2.97424 -2.56332,5.68626 -2.56332,8.37642 v 1.82605 l 1.74306,-1.85722 c 0.95868,-1.02147 2.26211,-2.20382 2.8965,-2.62745 z"
       id="path1457"
       transform="scale(0.26458333)" /><path
       style="opacity:0.5;fill:#ffffff;stroke-width:0.193218"
       d="m 378.99794,746.46625 c -18.53232,-0.46869 -34.83918,-2.40269 -43.18432,-5.12167 -5.25897,-1.71345 -6.92636,-3.26583 -8.63145,-8.03611 -2.38649,-6.67661 -4.05227,-18.24979 -5.09579,-35.40352 -0.33067,-5.43567 -0.45715,-25.77269 -0.20187,-32.4607 0.96044,-25.1625 3.85985,-41.68277 8.0512,-45.87412 5.03601,-5.036 28.06143,-8.22365 59.39941,-8.22326 21.37289,2.7e-4 38.95213,1.46 49.75375,4.13143 6.31852,1.56268 9.1072,2.99439 10.69763,5.4922 4.56174,7.1643 7.50181,33.07324 7.10778,62.63628 -0.34289,25.72637 -2.74441,44.70416 -6.63519,52.43393 -1.22522,2.43414 -2.99576,3.74837 -6.91942,5.13613 -10.6745,3.77545 -37.38393,5.97118 -64.34173,5.28941 z M 333.3041,725.17789 c 2.2131,-1.47785 4.79707,-1.68372 12.26705,-0.97734 7.82314,0.73977 11.57327,0.53436 14.52544,-0.79564 5.88109,-2.64952 9.99848,-8.3489 10.67486,-14.77634 0.39053,-3.71118 0.5904,-10.70308 0.59237,-20.72268 l 0.002,-10.09566 h 7.36901 7.36902 l -0.10885,10.67532 c -0.10736,10.53039 -0.22592,12.53954 -0.80532,13.64768 -0.14538,0.27806 -0.70678,1.05475 -1.24754,1.72598 -1.04494,1.29703 -1.19547,1.87987 -0.64508,2.49761 0.45129,0.50652 13.01214,12.30547 13.16668,12.36804 0.20368,0.0825 13.08849,-11.47225 15.8888,-14.2486 1.44808,-1.43568 2.78111,-2.90228 2.96231,-3.2591 0.43029,-0.84738 0.26035,-1.46192 -0.49024,-1.77283 -0.52341,-0.2168 -0.71994,-0.19779 -1.5409,0.14905 -0.81667,0.34504 -0.97179,0.36042 -1.17424,0.11648 -0.40129,-0.48352 -0.53514,-3.71928 -0.54483,-13.17156 l -0.009,-9.14463 3.30464,-4.57176 3.30463,-4.57176 -0.59632,-0.12196 c -0.32798,-0.0671 -1.57595,-0.18013 -2.77328,-0.25123 -1.19733,-0.0711 -2.42309,-0.17778 -2.72391,-0.23707 l -0.54695,-0.10779 0.12492,-8.24131 c 0.16429,-10.83857 0.42202,-17.25671 0.74766,-18.61936 0.73911,-3.09274 1.41689,-2.93563 8.40643,1.94861 l 3.69782,2.58401 0.002,22.53439 c 0.004,39.21869 0.31526,43.01474 3.83844,46.82674 1.17572,1.27211 3.76081,3.28387 4.98233,3.87732 l 0.81545,0.39618 0.80711,-0.53411 c 1.87022,-1.23766 7.9702,-7.59696 9.79395,-10.21033 0.91174,-1.30648 1.0286,-1.94952 0.41404,-2.27842 -0.34406,-0.18413 -0.54276,-0.12051 -1.28222,0.41053 -1.68037,1.20675 -3.52832,0.86736 -4.34622,-0.79822 -0.67178,-1.36799 -0.78312,-7.52738 -0.65031,-35.97593 l 0.12425,-26.61717 1.90279,-2.94525 c 2.78355,-4.30855 3.05888,-4.97404 2.05789,-4.97404 -0.89031,0 -2.61605,0.97234 -5.43512,3.06235 l -0.59717,0.44272 -4.52312,-3.07734 c -4.91765,-3.34577 -7.63664,-5.00595 -9.22203,-5.63085 -0.96439,-0.38013 -1.0508,-0.38446 -1.63753,-0.082 -0.90424,0.46613 -5.85278,3.56986 -13.72197,8.60642 -3.80576,2.43582 -7.02996,4.47113 -7.16491,4.52291 -0.15696,0.0602 -0.44285,-0.37868 -0.79354,-1.21828 -2.25362,-5.39549 -4.22453,-8.08947 -8.63635,-11.80483 l -1.67566,-1.41113 -0.81049,0.41347 c -1.84297,0.94022 -14.46573,7.93138 -18.00756,9.97355 -4.27982,2.4677 -9.00176,5.40237 -10.64109,6.61341 -3.58421,2.64781 -6.86007,7.72905 -8.79709,13.64529 -0.89977,2.74819 -1.38894,5.11939 -2.04944,9.93449 -0.26846,1.95706 -0.50991,3.57419 -0.53656,3.59363 -0.0266,0.0194 -0.83099,0.18249 -1.78742,0.36235 -3.96285,0.74521 -6.26181,1.74848 -8.15574,3.55919 -1.53469,1.46726 -2.46239,2.91427 -3.46551,5.40549 l -0.83352,2.07002 0.60439,0.0627 c 0.33241,0.0345 1.62811,-0.0307 2.87931,-0.14492 3.11458,-0.28422 6.06435,-0.25669 7.28395,0.068 2.47228,0.65813 5.04418,2.23199 7.01248,4.29124 1.56321,1.63544 2.29593,2.69782 3.27893,4.75416 1.88771,3.94891 2.20921,8.17359 0.92282,12.12628 -0.33623,1.03313 -0.61939,1.46313 -1.59623,2.42399 -1.96958,1.9374 -5.00048,3.30878 -11.89522,5.3822 -3.67018,1.10371 -6.77333,2.23657 -8.44014,3.08121 -2.93819,1.48889 -5.85466,7.41437 -5.85466,11.89508 v 1.82605 l 1.74306,-1.85722 c 0.95868,-1.02147 2.26211,-2.20382 2.8965,-2.62745 z"
       id="path1459"
       transform="scale(0.26458333)" /><path
       style="opacity:0.5;fill:#ffffff;stroke-width:0.193218"
       d="m 378.99794,746.46625 c -19.35798,-0.48957 -35.82114,-2.52282 -44.1328,-5.45053 -4.53173,-1.59627 -6.03918,-3.10848 -7.68297,-7.70725 -2.38649,-6.67661 -4.05227,-18.24979 -5.09579,-35.40352 -0.33067,-5.43567 -0.45715,-25.77269 -0.20187,-32.4607 0.95788,-25.09554 3.86786,-41.71693 8.03459,-45.89235 3.41807,-3.42521 16.09942,-6.1735 34.29763,-7.43295 7.44995,-0.5156 10.27507,-0.61102 21.15742,-0.7146 23.41113,-0.22285 42.06011,1.19156 53.71472,4.07395 6.33915,1.56778 9.09407,2.98629 10.71965,5.51953 4.91603,7.66097 7.98307,38.44651 6.95933,69.85465 -0.84967,26.06798 -3.93334,43.81437 -8.2799,47.65046 -4.75235,4.19423 -21.87031,7.05394 -47.26989,7.89688 -5.12012,0.16992 -16.75284,0.2047 -22.22012,0.0664 z M 333.3041,725.17789 c 2.21116,-1.47656 4.78348,-1.68226 12.26705,-0.98096 5.74424,0.5383 10.11476,0.53956 12.14922,0.004 6.18217,-1.62892 11.14436,-6.87156 12.67101,-13.38715 0.62693,-2.67571 0.80705,-6.62804 0.91627,-20.10572 l 0.10453,-12.89733 h 7.34583 7.34583 l -0.10885,10.67531 c -0.10736,10.53039 -0.22592,12.53954 -0.80532,13.64769 -0.14538,0.27806 -0.70678,1.05475 -1.24754,1.72597 -1.05482,1.3093 -1.19352,1.86231 -0.62116,2.47667 0.55889,0.5999 13.00603,12.33362 13.14196,12.38872 0.32823,0.13305 16.06729,-14.18773 17.78044,-16.17821 1.4543,-1.68972 1.62358,-2.2208 0.9049,-2.83898 -0.63022,-0.54209 -0.93145,-0.55328 -1.98744,-0.0739 -0.71056,0.32259 -0.83871,0.33256 -1.04715,0.0814 -0.40566,-0.4888 -0.53933,-3.697 -0.54905,-13.17776 l -0.009,-9.14572 3.30176,-4.57126 3.30176,-4.57125 -0.59344,-0.12138 c -0.3264,-0.0668 -1.57308,-0.17954 -2.77041,-0.25064 -1.19733,-0.0711 -2.42309,-0.17778 -2.72391,-0.23707 l -0.54695,-0.10779 0.12492,-8.24131 c 0.16429,-10.83857 0.42202,-17.25671 0.74766,-18.61936 0.73868,-3.09095 1.41944,-2.93391 8.38637,1.93465 l 3.67775,2.57005 0.10287,27.08898 c 0.0596,15.70631 0.18699,28.22563 0.30306,29.79403 0.586,7.9178 1.3346,10.36612 3.95832,12.94585 1.44689,1.42263 3.45301,2.9408 4.62362,3.49903 0.6885,0.32832 0.70369,0.32625 1.52548,-0.20774 1.04167,-0.67687 6.82044,-6.47477 8.38404,-8.41179 2.26975,-2.81182 2.62814,-3.62354 1.7964,-4.06867 -0.34405,-0.18413 -0.54276,-0.12051 -1.28222,0.41053 -1.68037,1.20675 -3.52831,0.86736 -4.34622,-0.79822 -0.67177,-1.36799 -0.78311,-7.52738 -0.65031,-35.97593 l 0.12425,-26.61717 1.90208,-2.94525 c 2.16164,-3.34717 2.53416,-4.02014 2.53416,-4.57801 0,-0.92032 -1.82017,-0.23653 -4.54063,1.70579 -0.85016,0.60699 -1.64791,1.16603 -1.77278,1.24231 -0.13313,0.0813 -2.09109,-1.12952 -4.73385,-2.92752 -4.90232,-3.33531 -7.62163,-4.99534 -9.20573,-5.61973 -0.96367,-0.37984 -1.05124,-0.38427 -1.63753,-0.0828 -0.79794,0.41034 -7.1335,4.38938 -14.6891,9.22548 -3.27498,2.09621 -6.06445,3.85347 -6.19882,3.90503 -0.15563,0.0597 -0.44331,-0.38267 -0.7925,-1.21868 -2.26224,-5.41611 -4.14343,-7.97892 -8.69045,-11.83928 l -1.65192,-1.40246 -3.81338,2.08372 c -18.08761,9.88351 -24.96893,14.04981 -27.6555,16.74405 -3.517,3.52702 -6.70066,10.03779 -7.91722,16.19114 -0.22061,1.11584 -0.62076,3.63002 -0.88921,5.58708 -0.26846,1.95706 -0.50991,3.57419 -0.53656,3.59363 -0.0266,0.0194 -0.83099,0.18249 -1.78742,0.36235 -4.03734,0.75922 -6.31866,1.77225 -8.2628,3.66912 -1.47148,1.43571 -2.47519,3.03952 -3.45005,5.51273 l -0.73033,1.85285 0.5986,0.0627 c 0.32922,0.0345 1.62231,-0.0307 2.87351,-0.14492 3.11458,-0.28422 6.06435,-0.25669 7.28395,0.068 2.47228,0.65813 5.04418,2.23199 7.01248,4.29124 1.56321,1.63544 2.29593,2.69782 3.27893,4.75416 1.88771,3.94891 2.20921,8.17359 0.92282,12.12628 -0.33589,1.03209 -0.61955,1.46329 -1.59163,2.41949 -1.96559,1.93349 -4.55086,3.11451 -11.597,5.29783 -4.96183,1.53747 -7.94877,2.66223 -9.23344,3.47695 -1.17999,0.74832 -2.42522,2.36484 -3.4911,4.53201 -1.3243,2.69259 -1.71283,4.11879 -1.82174,6.68706 l -0.0942,2.22201 1.76451,-1.87063 c 0.97047,-1.02884 2.28355,-2.21723 2.91794,-2.64086 z"
       id="path1461"
       transform="scale(0.26458333)" /></g></svg>
