<?xml version="1.0" encoding="UTF-8" standalone="no"?>
<!-- Created with Inkscape (http://www.inkscape.org/) -->

<svg width="99.252899mm"
     height="20.84108mm"
     viewBox="0 0 99.252899 20.84108"
     version="1.1"
     id="svg5"
     xml:space="preserve"
     xmlns="http://www.w3.org/2000/svg">
    <defs
            id="defs2"/>
    <g
            id="layer1"
            transform="translate(-13.463411,-119.70967)"><path
       style="fill:#000000;stroke-width:0.169084"
       d="m 13.467123,140.06783 c 0.0047,-0.61233 0.518081,-1.74058 0.978165,-2.14973 0.194316,-0.1728 1.023008,-0.50243 1.841539,-0.73252 1.892118,-0.53186 2.692245,-0.97779 2.918384,-1.62649 0.537056,-1.54061 -0.244795,-3.44061 -1.726955,-4.19675 -0.566135,-0.28883 -0.901351,-0.34092 -1.75364,-0.2725 l -1.053709,0.0846 0.157274,-0.41366 c 0.405152,-1.06564 1.068352,-1.61776 2.193643,-1.82624 l 0.599434,-0.11107 0.179063,-1.33742 c 0.225726,-1.68594 0.990702,-3.29917 1.956401,-4.12578 0.384627,-0.32922 1.947165,-1.28529 3.472309,-2.12459 l 2.772987,-1.52601 0.52173,0.43901 c 0.707166,0.59504 1.088595,1.10191 1.439329,1.91269 l 0.29523,0.68248 2.113556,-1.35994 c 1.162457,-0.74796 2.213944,-1.401 2.336639,-1.45119 0.122696,-0.0502 0.866471,0.35028 1.652836,0.88994 l 1.429754,0.9812 0.496145,-0.36681 c 0.470425,-0.3478 0.848007,-0.47187 0.848007,-0.27865 0,0.0485 -0.209242,0.40422 -0.464982,0.79052 l -0.464982,0.70236 -0.04815,6.31114 c -0.03241,4.24864 0.01097,6.42163 0.132763,6.6492 0.197447,0.36893 0.670894,0.44487 0.961538,0.15423 0.132368,-0.13236 0.218597,-0.12754 0.308075,0.0173 0.130268,0.21078 -2.040689,2.53376 -2.367942,2.53376 -0.09755,0 -0.459285,-0.23238 -0.803853,-0.5164 -1.078212,-0.88875 -1.141407,-1.35618 -1.141407,-8.44248 v -6.19215 l -1.021827,-0.72061 c -1.595201,-1.12497 -1.590937,-1.13113 -1.645117,2.37942 l -0.04613,2.98916 0.683147,0.0522 0.683149,0.0521 -0.673832,0.92996 -0.673834,0.92997 -0.0054,2.4154 c -0.0052,2.31923 0.0073,2.40858 0.314958,2.24392 0.229974,-0.12307 0.370462,-0.11117 0.497724,0.0422 0.133748,0.16115 -0.323922,0.66068 -1.862874,2.03322 l -2.04018,1.81958 -1.205166,-1.13861 c -0.66284,-0.62623 -1.315011,-1.23686 -1.449268,-1.35695 -0.210672,-0.18844 -0.193304,-0.27241 0.126813,-0.61317 0.34708,-0.36944 0.370926,-0.55445 0.370926,-2.87792 v -2.4831 h -1.521761 -1.521761 l -0.0042,3.00125 c -0.0023,1.65069 -0.0821,3.34365 -0.177389,3.76213 -0.243364,1.06878 -0.864628,1.93422 -1.76893,2.46418 -0.859002,0.5034 -1.420487,0.55633 -3.569181,0.33646 -1.668715,-0.17077 -2.164107,-0.0628 -2.791259,0.60862 l -0.481502,0.51545 z m 7.614456,-3.10869 c 0.792003,-0.42387 0.835586,-0.78793 0.843479,-7.04587 0.0058,-4.62131 0.05862,-6.02784 0.246009,-6.55394 0.131223,-0.36843 0.214642,-0.69381 0.185375,-0.72308 -0.149936,-0.14994 -1.286013,1.37193 -1.441118,1.9305 -0.105424,0.37966 -0.179782,2.48012 -0.180336,5.09417 -0.0011,5.11477 -0.09262,5.70406 -1.031883,6.64333 -0.51849,0.51849 -0.585229,0.65333 -0.353612,0.71443 0.543838,0.14349 1.408255,0.11377 1.732086,-0.0596 z m 8.461031,-1.35917 0.491084,-0.34969 v -2.69384 -2.69384 h -0.929965 -0.929965 v 2.65219 c 0,2.49035 0.02243,2.67606 0.367643,3.04352 0.444918,0.47359 0.397379,0.47162 1.001203,0.0417 z m -6.668264,-7.0052 c 0.478502,-0.7574 0.48457,-0.76058 1.452745,-0.76088 l 0.972236,-3e-4 v -2.67914 c 0,-2.95868 -0.05527,-3.12305 -1.12173,-3.33635 -0.43224,-0.0864 -0.586369,-0.012 -1.03646,0.50063 -0.290793,0.33119 -0.608529,0.88958 -0.70608,1.24086 -0.164759,0.59329 -0.263709,5.79576 -0.110235,5.79576 0.03796,0 0.285245,-0.34226 0.549524,-0.76058 z m 7.159348,-3.46502 v -2.70383 l -0.887694,0.5693 -0.887693,0.5693 -0.04732,2.13454 -0.04732,2.13453 h 0.935016 0.935018 z m 9.995757,12.34651 c -0.365438,-0.46231 -0.796228,-1.18567 -0.957311,-1.60746 -0.578673,-1.51524 0.04206,-3.49331 1.647445,-5.24985 l 0.854154,-0.93458 -0.612943,-1.62111 c -0.337122,-0.89161 -0.612944,-1.66944 -0.612942,-1.72853 2e-6,-0.0591 0.351941,-0.12102 0.782087,-0.13762 0.537623,-0.0208 1.038228,-0.1894 1.601541,-0.53958 l 0.819458,-0.5094 1.911053,0.64203 c 1.796498,0.60354 1.935228,0.62597 2.314324,0.37426 0.221799,-0.14726 0.368119,-0.19336 0.325158,-0.10244 -0.04296,0.0909 -0.226274,0.46966 -0.407363,0.84164 -0.292207,0.60024 -0.334999,1.1205 -0.380322,4.62381 -0.04411,3.4094 -0.01378,4.00437 0.222458,4.36492 0.224395,0.34247 0.362647,0.39788 0.769677,0.30849 0.272885,-0.0599 0.491063,-0.0459 0.484843,0.0312 -0.0062,0.0771 -0.532154,0.57846 -1.168744,1.11406 l -1.157434,0.97381 -0.546162,-0.45956 c -0.586566,-0.49357 -1.164628,-1.58537 -1.170667,-2.21107 -0.0032,-0.33389 -0.25541,-0.18275 -1.904466,1.14132 -1.045414,0.83938 -1.956701,1.52616 -2.025082,1.52616 -0.06838,0 -0.423325,-0.37826 -0.788762,-0.84058 z m 3.921116,-2.28103 0.793481,-0.66987 v -1.53282 -1.53281 l -1.45688,-0.72254 c -0.801284,-0.39739 -1.488084,-0.69134 -1.52622,-0.6532 -0.03814,0.0382 -0.227649,0.51752 -0.421136,1.0653 -0.572341,1.62034 -0.312385,3.08703 0.813762,4.59132 0.464482,0.62045 0.388852,0.6434 1.796993,-0.54538 z m 0.793481,-5.81414 v -1.49602 l -1.951536,-0.7232 c -1.073345,-0.39775 -1.977093,-0.69466 -2.008329,-0.65979 -0.03124,0.0349 0.207455,0.7598 0.530425,1.61099 l 0.587217,1.54762 1.294299,0.59612 c 0.711864,0.32787 1.351363,0.60157 1.421111,0.60822 0.06975,0.007 0.126813,-0.66113 0.126813,-1.48394 z m 6.505088,8.00641 -1.00984,-0.89819 0.380439,-0.40754 c 0.371145,-0.39759 0.380441,-0.50035 0.380441,-4.2057 0,-3.22459 -0.04129,-3.8571 -0.273404,-4.18849 -0.176072,-0.25138 -0.386694,-0.36071 -0.591627,-0.30712 -0.663135,0.17341 -0.451964,-0.2285 0.63597,-1.2104 1.089994,-0.98375 1.138502,-1.00766 1.527202,-0.75298 0.555071,0.3637 1.051997,1.1014 1.290599,1.91593 l 0.201155,0.68671 1.690845,-1.35763 c 0.929965,-0.7467 1.732722,-1.35924 1.783906,-1.3612 0.05118,-0.002 0.513559,0.37122 1.027498,0.82928 l 0.934438,0.83285 0.494262,-0.40405 c 0.459055,-0.37528 0.916974,-0.53758 0.916974,-0.32501 0,0.0502 -0.266309,0.48666 -0.591795,0.96998 l -0.591795,0.87876 v 3.73491 c 0,3.6677 0.007,3.74143 0.384989,4.0966 0.268143,0.25191 0.505937,0.33005 0.783512,0.25746 0.624368,-0.16327 0.381698,0.16368 -0.898096,1.21003 l -1.16681,0.95398 -0.635688,-0.62073 c -0.403801,-0.3943 -0.702896,-0.88765 -0.819932,-1.35244 -0.102681,-0.40778 -0.189648,-2.364 -0.196452,-4.41895 l -0.01221,-3.68726 -0.58748,-0.48853 c -0.664588,-0.55264 -0.805001,-0.52617 -2.051188,0.38687 l -0.718609,0.52649 v 3.49655 c 0,3.35727 0.01464,3.51213 0.367642,3.88789 l 0.367644,0.39133 -0.409915,0.43954 c -0.225452,0.24174 -0.678322,0.65322 -1.006376,0.91439 l -0.596461,0.47485 z m 19.039464,0.14285 c -0.451023,-0.51239 -0.729896,-1.01522 -0.797489,-1.43794 -0.0572,-0.35751 -0.141417,-0.65002 -0.187219,-0.65002 -0.04582,0 -0.865779,0.57026 -1.822176,1.26725 -0.956398,0.69699 -1.848263,1.30921 -1.981929,1.3605 -0.344741,0.13229 -1.419236,-1.11297 -1.636996,-1.89717 -0.103029,-0.37105 -0.179793,-2.3465 -0.180336,-4.64109 -6.39e-4,-3.26501 -0.04531,-4.03188 -0.243757,-4.19657 -0.177058,-0.14695 -0.33456,-0.15243 -0.581538,-0.0203 -0.201572,0.10787 -0.377742,0.11812 -0.43511,0.0253 -0.05304,-0.0858 0.490114,-0.61176 1.206954,-1.16885 l 1.303343,-1.01288 0.980886,0.77062 c 0.539488,0.42385 0.980886,0.83485 0.980886,0.91334 0,0.0785 -0.152172,0.23774 -0.338164,0.35389 -0.322336,0.2013 -0.338172,0.39432 -0.338172,4.1212 0,3.69963 0.01885,3.93399 0.350442,4.35553 0.19274,0.24503 0.450684,0.44551 0.573191,0.44551 0.122521,0 0.687654,-0.34223 1.255868,-0.76052 l 1.033104,-0.76054 v -3.48275 c 0,-3.1198 -0.03272,-3.52953 -0.314053,-3.93156 l -0.314054,-0.44881 0.95944,-0.79087 0.959439,-0.79087 0.960916,0.7623 c 0.528509,0.41926 0.960922,0.83158 0.960922,0.91624 0,0.0847 -0.152179,0.24899 -0.338171,0.36514 -0.323364,0.20195 -0.338171,0.39432 -0.338171,4.39374 v 4.18254 l 0.423562,0.27753 c 0.327997,0.2149 0.477192,0.23301 0.66128,0.0802 0.173524,-0.144 0.269204,-0.14637 0.354256,-0.009 0.06409,0.1037 0.08988,0.20576 0.05732,0.22681 -0.03259,0.021 -0.515728,0.42144 -1.07371,0.88977 -0.557976,0.46832 -1.10287,0.90288 -1.210865,0.96569 -0.113861,0.0662 -0.487755,-0.21683 -0.889903,-0.6737 z m 20.797392,0 c -0.451016,-0.51239 -0.729889,-1.01522 -0.797482,-1.43794 -0.0572,-0.35751 -0.141418,-0.65002 -0.187219,-0.65002 -0.04582,0 -0.865779,0.57026 -1.822183,1.26725 -0.956391,0.69699 -1.848263,1.30921 -1.981922,1.3605 -0.344741,0.13229 -1.419237,-1.11297 -1.636996,-1.89717 -0.103036,-0.37105 -0.179793,-2.3465 -0.180337,-4.64109 -6.39e-4,-3.26501 -0.04531,-4.03188 -0.243763,-4.19657 -0.177051,-0.14695 -0.334554,-0.15243 -0.581531,-0.0203 -0.201572,0.10787 -0.377742,0.11812 -0.43511,0.0253 -0.05304,-0.0858 0.490114,-0.61176 1.206953,-1.16885 l 1.303343,-1.01288 0.980887,0.77062 c 0.539488,0.42385 0.980886,0.83485 0.980886,0.91334 0,0.0785 -0.152173,0.23774 -0.338171,0.35389 -0.322329,0.2013 -0.338165,0.39432 -0.338165,4.1212 0,3.69963 0.01885,3.93399 0.350441,4.35553 0.192741,0.24503 0.450678,0.44551 0.573192,0.44551 0.122514,0 0.687654,-0.34223 1.255861,-0.76052 l 1.03311,-0.76054 v -3.48275 c 0,-3.1198 -0.03272,-3.52953 -0.314053,-3.93156 l -0.314059,-0.44881 0.959439,-0.79087 0.959446,-0.79087 0.960916,0.7623 c 0.528502,0.41926 0.960915,0.83158 0.960915,0.91624 0,0.0847 -0.152173,0.24899 -0.338164,0.36514 -0.323365,0.20195 -0.338172,0.39432 -0.338172,4.39374 v 4.18254 l 0.423556,0.27753 c 0.327998,0.2149 0.477193,0.23301 0.661286,0.0802 0.173524,-0.144 0.269198,-0.14637 0.354257,-0.009 0.06409,0.1037 0.08988,0.20576 0.05732,0.22681 -0.03259,0.021 -0.515733,0.42144 -1.073709,0.88977 -0.557982,0.46832 -1.10287,0.90288 -1.210865,0.96569 -0.113861,0.0662 -0.487756,-0.21683 -0.88991,-0.6737 z m 7.936284,0.18248 c -0.417331,-0.3057 -1.191379,-0.76258 -1.720112,-1.01529 l -0.961325,-0.45947 0.32516,-0.60669 c 0.290594,-0.54218 0.325167,-0.97603 0.325167,-4.08007 0,-2.92547 -0.04314,-3.53497 -0.273403,-3.86373 -0.176074,-0.25138 -0.386695,-0.36071 -0.591628,-0.30712 -0.66353,0.17351 -0.451681,-0.22875 0.638778,-1.21293 1.098882,-0.99178 1.140754,-1.01225 1.592441,-0.77868 0.577186,0.29848 1.17008,1.03475 1.17008,1.45303 0,0.49452 0.264666,0.38652 1.664876,-0.67936 l 1.30673,-0.99473 0.8906,0.9918 0.89061,0.9918 -0.62686,0.55245 c -1.26742,1.11699 -1.18872,1.10885 -2.09467,0.21653 l -0.8119,-0.7997 -0.52516,0.38826 -0.525137,0.38825 v 3.65977 3.65976 l 0.703487,0.56534 c 0.68513,0.55059 0.7159,0.5582 1.17981,0.29195 0.33543,-0.19251 0.51074,-0.2177 0.59264,-0.0852 0.10908,0.17649 -0.346,0.63247 -1.7996,1.80319 l -0.591796,0.47663 z m -21.72877,-0.25686 c -0.650595,-0.35647 -1.499023,-0.74147 -1.885399,-0.85556 l -0.702499,-0.20742 0.32137,-0.59961 c 0.289367,-0.53989 0.321371,-0.99114 0.321371,-4.53089 v -3.93129 l 0.972233,-0.5051 c 0.534733,-0.2778 1.316898,-0.76834 1.738147,-1.09009 l 0.765906,-0.585 1.379091,0.87664 1.379091,0.87663 -0.582612,0.80283 c -0.596619,0.82213 -0.730598,0.90952 -1.010487,0.6591 -0.08834,-0.079 -0.598135,-0.38898 -1.132868,-0.68874 l -0.972233,-0.54504 v 3.94882 3.94882 l 1.239482,0.61331 1.239488,0.61332 0.548,-0.42888 c 0.338919,-0.26524 0.608155,-0.36871 0.705682,-0.27118 0.143948,0.14395 -0.132586,0.37293 -2.633604,2.1808 l -0.507253,0.36667 z m 30.349984,0.27333 c -0.41848,-0.22174 -1.2286,-0.53183 -1.80026,-0.68909 l -1.03939,-0.28592 0.31707,-0.69821 c 0.28111,-0.61907 0.31748,-1.15322 0.32077,-4.71156 l 0.004,-4.01332 0.97223,-0.49739 c 0.53473,-0.27355 1.39072,-0.76594 1.90221,-1.09419 l 0.92996,-0.59681 1.73311,1.72281 c 0.95322,0.94754 1.73312,1.76626 1.73312,1.81936 0,0.0531 -0.47555,0.42886 -1.05678,0.83501 -0.58123,0.40615 -1.6463,1.20104 -2.36682,1.7664 l -1.31005,1.02794 -3.4e-4,1.4614 c -1.6e-4,1.01026 0.0649,1.48827 0.211,1.54845 0.11624,0.0479 0.64064,0.27968 1.16534,0.51514 l 0.95398,0.42809 0.90595,-0.57201 c 0.63277,-0.39952 0.95693,-0.51753 1.07503,-0.39137 0.11335,0.12109 0.10597,0.20399 -0.0224,0.2515 -0.10531,0.039 -0.99073,0.63817 -1.96762,1.33154 -0.97688,0.69337 -1.80378,1.25724 -1.83756,1.25304 -0.0337,-0.004 -0.40379,-0.18907 -0.82228,-0.41081 z m 2.494,-7.69821 c 0.20924,-0.16594 0.38044,-0.36874 0.38044,-0.45068 0,-0.0819 -0.57066,-0.71583 -1.26814,-1.40865 l -1.26813,-1.25967 v 2.4196 2.41961 l 0.8877,-0.70925 c 0.48823,-0.3901 1.05889,-0.84503 1.26813,-1.01096 z"
       id="path305"/>
</g>
</svg>
